<svg id="Livello_1" data-name="Livello 1" xmlns="http://www.w3.org/2000/svg" viewBox="0 0 283.46 107.46"><defs><style>.cls-1{fill:#fff;}.cls-1,.cls-2{fill-rule:evenodd;}.cls-2{fill:#c43b0e;}</style></defs><title>tim</title><path class="cls-1" d="M241.77,48.5a4.1,4.1,0,0,0-.22.41l-7.29,18.4c-.72,1.81-1.5,3.6-2.18,5.42a1.91,1.91,0,0,1-1.85,1.45q-4.72.06-9.46,0a2.22,2.22,0,0,1-2.08-1.59c-2.92-7-5.9-13.86-8.85-20.79-.45-1.06-.81-2.15-1.34-3.25V82c0,1.36-.24,1.75-1.57,1.81-2.69.13-5.38.15-8.08.18A22,22,0,0,1,196,83.8c-1.3-.16-1.46-.38-1.46-1.65V25.33c0-1.16.26-1.48,1.44-1.63a20,20,0,0,1,2.44-.17c2.95,0,5.89,0,8.84,0a10.6,10.6,0,0,1,2.9.48,2.18,2.18,0,0,1,1.21,1.1c3.14,7.32,6.28,14.65,9.32,22,1.78,4.34,3.4,8.75,5.07,13.07,0,0,.07-.21.14-.39,2.34-5.94,4.63-11.89,7-17.8,2.25-5.58,4.63-11.11,6.9-16.68a2.37,2.37,0,0,1,2.2-1.66c1.54-.1,3.08-.15,4.62-.17,2,0,4,0,6,0a12.84,12.84,0,0,1,2.21.34,1.1,1.1,0,0,1,.93,1.25c0,2,0,4.05,0,6.08V82.05c0,1.25-.25,1.66-1.5,1.72-2.64.13-5.29.15-7.93.18a26.71,26.71,0,0,1-3.1-.16c-1.16-.13-1.36-.41-1.36-1.59V48.52Z"/><path class="cls-1" d="M131.16,36.57H117.58c-1,0-1.26-.24-1.42-1.18a10.85,10.85,0,0,1-.16-1.8c0-2.51,0-5,0-7.52a11.67,11.67,0,0,1,.13-1.44c.11-.93.32-1.11,1.25-1.11h41.33c1,0,1.21.19,1.3,1.15s.13,1.92.12,2.88c0,2.51,0,5-.13,7.52-.05,1.22-.44,1.5-1.64,1.5H145.09c0,.3,0,.54,0,.77V81.93c0,1.41-.19,1.76-1.62,1.84-2.66.14-5.33.15-8,.17a26.72,26.72,0,0,1-3.1-.17c-.94-.11-1.17-.43-1.17-1.38V36.57Z"/><path class="cls-2" d="M63.79,23.55q16.34,0,32.65,0a3.51,3.51,0,0,1,3.49,3.36c0,2.15,0,4.3,0,6.44A3.32,3.32,0,0,1,97,36.42c-.83.08-1.67.14-2.51.14H31.74a3.75,3.75,0,0,1-3.68-1.9,3.51,3.51,0,0,1-.38-1.5c0-2.1,0-4.2,0-6.3A3.36,3.36,0,0,1,31,23.55Q47.4,23.53,63.79,23.55Z"/><path class="cls-1" d="M169.39,53.73V25.35c0-1.22.22-1.52,1.46-1.65a32.07,32.07,0,0,1,3.39-.17c2.39,0,4.77.09,7.16.15a4.19,4.19,0,0,1,.91.18,1.21,1.21,0,0,1,1,1.32c0,3.66,0,7.33,0,11V82c0,1.32-.23,1.71-1.53,1.77-2.69.13-5.39.15-8.08.18a25.65,25.65,0,0,1-3-.17c-1-.12-1.25-.42-1.25-1.46Z"/><path class="cls-2" d="M71,47.3l.7,0H96.24a3.34,3.34,0,0,1,3.56,2.5,3.82,3.82,0,0,1,.12,1.07q0,3.07,0,6.15a3.26,3.26,0,0,1-3.17,3.18q-12.66,0-25.33,0l-.41,0Z"/><path class="cls-2" d="M71,83.89V71.05l.73,0H96.19a3.33,3.33,0,0,1,3.6,2.45,3.8,3.8,0,0,1,.13,1.06c0,2.1,0,4.2,0,6.29a3.34,3.34,0,0,1-3.11,3.1H71.39Z"/><path class="cls-2" d="M56.6,71.06V83.92H31.08a3.37,3.37,0,0,1-3.42-3.41c0-2.08,0-4.15,0-6.22A3.32,3.32,0,0,1,30.87,71Q43.46,71,56,71Z"/><path class="cls-2" d="M56.57,60.19h-.88c-8.15,0-16.3,0-24.45,0a3.58,3.58,0,0,1-3.6-3.65c.1-2,0-4,0-6a3.34,3.34,0,0,1,3.2-3.26q12.66,0,25.32,0a3.22,3.22,0,0,1,.39,0Z"/></svg>